<svg width="32" height="32" viewBox="0 0 32 32" fill="none" xmlns="http://www.w3.org/2000/svg">
<rect width="32" height="32" rx="6" fill="white"/>
<path d="M14.5313 10.4295C14.5313 9.56797 15.2322 8.86703 16.0938 8.86703H16.6345L16.4714 8.41359C16.3797 8.15859 16.1394 8 15.8832 8C15.8123 8 15.7401 8.01219 15.6695 8.03787L10.2054 10.0267C9.88052 10.1449 9.71333 10.5044 9.83227 10.829L10.121 11.617H14.5313V10.4295Z" fill="#2970FF"/>
<path d="M16.0938 9.80453C15.7486 9.80453 15.4688 10.0843 15.4688 10.4295V11.617H18.2031H20.9375V10.4295C20.9375 10.0843 20.6577 9.80453 20.3125 9.80453H16.0938ZM22.5938 21.6327C22.5938 21.0804 22.146 20.6327 21.5938 20.6327H20.4063C19.1139 20.6327 18.0625 19.5813 18.0625 18.2889C18.0625 16.9966 19.1139 15.9452 20.4063 15.9452H21.5938C22.146 15.9452 22.5938 15.4974 22.5938 14.9452V13.8045C22.5938 13.1142 22.0341 12.5545 21.3438 12.5545H9.25C8.55966 12.5545 8 13.1142 8 13.8045V22.75C8 23.4403 8.55966 24 9.25 24H21.3438C22.0341 24 22.5938 23.4403 22.5938 22.75V21.6327Z" fill="#2970FF"/>
<path d="M23.5312 16.8827H20.4062C19.6308 16.8827 19 17.5135 19 18.2889C19 19.0643 19.6308 19.6952 20.4062 19.6952H23.5312C23.7897 19.6952 24 19.4849 24 19.2264V17.3514C24 17.0929 23.7897 16.8827 23.5312 16.8827ZM20.4062 18.7577C20.1474 18.7577 19.9375 18.5478 19.9375 18.2889C19.9375 18.03 20.1474 17.8202 20.4062 17.8202C20.6651 17.8202 20.875 18.03 20.875 18.2889C20.875 18.5478 20.6651 18.7577 20.4062 18.7577Z" fill="#2970FF"/>
</svg>
