<svg width="32" height="32" viewBox="0 0 32 32" fill="none" xmlns="http://www.w3.org/2000/svg">
<rect width="32" height="32" rx="6" fill="white"/>
<path d="M20.2497 8.00001H11.2499C10.6532 8.00001 10.0809 8.23705 9.65899 8.659C9.23705 9.08094 9 9.65322 9 10.2499V21.3496C8.99945 21.6031 9.06317 21.8527 9.1852 22.0749C9.30723 22.2971 9.4836 22.4848 9.69782 22.6203C9.91205 22.7559 10.1571 22.835 10.4102 22.8502C10.6633 22.8653 10.9161 22.8161 11.1449 22.7071C11.3249 22.6171 11.4824 22.5196 11.6474 22.4221C11.9648 22.1838 12.3532 22.0596 12.7499 22.0696C13.1489 22.0597 13.5397 22.1838 13.8599 22.4221C14.4137 22.8081 15.0748 23.0101 15.7498 22.9996C16.4248 23.0106 17.0862 22.8085 17.6398 22.4221C17.9597 22.1833 18.3506 22.0591 18.7497 22.0696C19.1466 22.0584 19.5354 22.1828 19.8522 22.4221C20.0146 22.5234 20.1824 22.6161 20.3547 22.6996C20.583 22.8083 20.8351 22.8576 21.0875 22.8428C21.34 22.8279 21.5846 22.7495 21.7986 22.6148C22.0127 22.4801 22.1891 22.2935 22.3117 22.0723C22.4343 21.8511 22.4989 21.6025 22.4996 21.3496V10.2499C22.4996 9.65322 22.2626 9.08094 21.8406 8.659C21.4187 8.23705 20.8464 8.00001 20.2497 8.00001ZM15.7498 18.4997H12.7499C12.551 18.4997 12.3602 18.4207 12.2196 18.28C12.0789 18.1394 11.9999 17.9486 11.9999 17.7497C11.9999 17.5508 12.0789 17.3601 12.2196 17.2194C12.3602 17.0788 12.551 16.9997 12.7499 16.9997H15.7498C15.9487 16.9997 16.1395 17.0788 16.2801 17.2194C16.4208 17.3601 16.4998 17.5508 16.4998 17.7497C16.4998 17.9486 16.4208 18.1394 16.2801 18.28C16.1395 18.4207 15.9487 18.4997 15.7498 18.4997ZM18.7497 15.4998H12.7499C12.551 15.4998 12.3602 15.4208 12.2196 15.2801C12.0789 15.1395 11.9999 14.9487 11.9999 14.7498C11.9999 14.5509 12.0789 14.3601 12.2196 14.2195C12.3602 14.0789 12.551 13.9998 12.7499 13.9998H18.7497C18.9486 13.9998 19.1394 14.0789 19.28 14.2195C19.4207 14.3601 19.4997 14.5509 19.4997 14.7498C19.4997 14.9487 19.4207 15.1395 19.28 15.2801C19.1394 15.4208 18.9486 15.4998 18.7497 15.4998ZM18.7497 12.4999H12.7499C12.551 12.4999 12.3602 12.4209 12.2196 12.2802C12.0789 12.1396 11.9999 11.9488 11.9999 11.7499C11.9999 11.551 12.0789 11.3602 12.2196 11.2196C12.3602 11.0789 12.551 10.9999 12.7499 10.9999H18.7497C18.9486 10.9999 19.1394 11.0789 19.28 11.2196C19.4207 11.3602 19.4997 11.551 19.4997 11.7499C19.4997 11.9488 19.4207 12.1396 19.28 12.2802C19.1394 12.4209 18.9486 12.4999 18.7497 12.4999Z" fill="#2970FF"/>
</svg>
