<svg width="32" height="32" viewBox="0 0 32 32" fill="none" xmlns="http://www.w3.org/2000/svg">
<rect width="32" height="32" rx="6" fill="white"/>
<path d="M15.6736 24H15.5401C15.4734 24 9 22.4651 9 15.3243V11.3201C9 11.0532 9.13347 10.7862 9.40042 10.7195L15.4067 8.05004C15.6069 7.9833 15.8071 7.9833 15.9406 8.05004L21.9468 10.7195C22.2138 10.7862 22.3472 11.0532 22.3472 11.3201V15.3243C22.3472 22.4651 15.8738 24 15.8071 24H15.6736ZM15.6736 16.659C13.7383 16.659 12.3368 17.5266 12.3368 18.6611C12.3368 19.7956 13.7383 20.6632 15.6736 20.6632C17.609 20.6632 19.0104 19.7956 19.0104 18.6611C19.0104 17.5266 17.609 16.659 15.6736 16.659ZM15.6736 11.3201C14.5391 11.3201 13.6715 12.1877 13.6715 13.3222C13.6715 14.4567 14.5391 15.3243 15.6736 15.3243C16.8081 15.3243 17.6757 14.4567 17.6757 13.3222C17.6757 12.1877 16.8081 11.3201 15.6736 11.3201Z" fill="#2970FF"/>
</svg>
