<svg width="32" height="32" viewBox="0 0 32 32" fill="none" xmlns="http://www.w3.org/2000/svg">
<rect width="32" height="32" rx="6" fill="white"/>
<path d="M8.5 15.8333C8.5 16.3856 8.94772 16.8333 9.5 16.8333H14.1667C14.719 16.8333 15.1667 16.3856 15.1667 15.8333V9.5C15.1667 8.94771 14.719 8.5 14.1667 8.5H9.5C8.94771 8.5 8.5 8.94772 8.5 9.5V15.8333ZM8.5 22.5C8.5 23.0523 8.94772 23.5 9.5 23.5H14.1667C14.719 23.5 15.1667 23.0523 15.1667 22.5V19.5C15.1667 18.9477 14.719 18.5 14.1667 18.5H9.5C8.94771 18.5 8.5 18.9477 8.5 19.5V22.5ZM16.8333 22.5C16.8333 23.0523 17.281 23.5 17.8333 23.5H22.5C23.0523 23.5 23.5 23.0523 23.5 22.5V16.1667C23.5 15.6144 23.0523 15.1667 22.5 15.1667H17.8333C17.281 15.1667 16.8333 15.6144 16.8333 16.1667V22.5ZM17.8333 8.5C17.281 8.5 16.8333 8.94772 16.8333 9.5V12.5C16.8333 13.0523 17.281 13.5 17.8333 13.5H22.5C23.0523 13.5 23.5 13.0523 23.5 12.5V9.5C23.5 8.94772 23.0523 8.5 22.5 8.5H17.8333Z" fill="#155EEF"/>
</svg>
