<svg width="32" height="32" viewBox="0 0 32 32" fill="none" xmlns="http://www.w3.org/2000/svg">
<rect width="32" height="32" rx="6" fill="white"/>
<path d="M23.7568 8.24282C23.5992 8.08532 23.381 7.99916 23.1427 8.00001H23.1317C21.9729 8.03138 20.7916 8.24391 19.6306 8.61875L23.3786 12.3668C23.755 11.2105 23.968 10.0301 23.9996 8.86794L23.9998 8.85722C24.0006 8.61879 23.9146 8.40066 23.7568 8.24285L23.7568 8.24282ZM16.6086 14.0365C16.6086 14.3874 16.7454 14.7173 16.9935 14.9655C17.506 15.4779 18.3395 15.4779 18.8519 14.9655C19.1001 14.7173 19.2368 14.3874 19.2368 14.0365C19.2371 13.6854 19.1002 13.3555 18.8519 13.1071C18.3397 12.5949 17.506 12.5946 16.9935 13.1071C16.7454 13.3552 16.6086 13.6852 16.6086 14.0365Z" fill="#2970FF"/>
<path d="M14.1276 11.8229C13.9758 11.9596 13.7738 12.0299 13.5741 12.0152C11.0736 11.8336 8.89966 13.1108 8.03585 15.269C7.99982 15.3592 7.99071 15.4579 8.0096 15.5531C8.0285 15.6483 8.0746 15.736 8.14232 15.8055C8.21029 15.875 8.29689 15.9233 8.39169 15.9446C8.48649 15.966 8.58544 15.9594 8.6766 15.9258C9.42685 15.6472 10.2361 15.5624 11.0456 15.6741C10.9297 15.8825 10.8189 16.0997 10.729 16.3201C10.5613 16.6712 10.6234 17.0303 10.9016 17.3085L14.7686 21.1754C14.9885 21.3949 15.3441 21.4313 15.6796 21.2708C15.8664 21.1945 16.0605 21.099 16.2529 20.9896C16.3575 21.7876 16.2708 22.5839 15.9966 23.3231C15.9632 23.4133 15.9563 23.5111 15.9768 23.605C15.9973 23.699 16.0442 23.7851 16.1121 23.8531L16.1163 23.8573C16.1858 23.9251 16.2735 23.9713 16.3688 23.9903C16.464 24.0093 16.5627 24.0003 16.6529 23.9643C18.8679 23.08 20.1508 20.9105 19.9209 18.4376C19.9114 18.3346 19.9238 18.2306 19.9571 18.1326C19.9904 18.0346 20.044 17.9448 20.1143 17.8688C21.3702 16.5132 22.3573 14.9617 23.0225 13.3365L18.6586 8.9725C17.0433 9.62691 15.4928 10.5942 14.1276 11.8229ZM20.1745 14.0362C20.1745 14.6378 19.94 15.2032 19.5149 15.6284C18.6369 16.5063 17.2086 16.5063 16.3306 15.6284C15.9056 15.2032 15.6711 14.6378 15.6711 14.0362C15.6713 13.4351 15.9054 12.8696 16.3306 12.4442C17.2086 11.5663 18.6369 11.5663 19.5149 12.4442C19.9403 12.8695 20.1745 13.4348 20.1745 14.0362ZM9.24851 20.5052C8.59544 21.7713 8.49226 22.601 8.93285 23.0416C9.37351 23.4822 10.2031 23.379 11.4693 22.726C12.2812 22.3073 13.187 21.6981 13.576 21.3091L10.6654 18.3987C10.2763 18.7877 9.66722 19.6933 9.24851 20.5052Z" fill="#2970FF"/>
</svg>
