<svg width="32" height="32" viewBox="0 0 32 32" fill="none" xmlns="http://www.w3.org/2000/svg">
<rect width="32" height="32" rx="6" fill="white"/>
<path d="M15.9787 25.1481C13.0141 25.1481 12.595 25.1481 9.63046 25.1481C9.54657 25.1481 9.46152 25.1516 9.37918 25.1396C9.14576 25.1054 8.99001 24.9205 9.0005 24.6995C9.01099 24.4743 9.17683 24.3162 9.42578 24.3143C10.0457 24.3096 10.6659 24.3119 11.2858 24.3119C11.9122 24.3119 9.99326 24.308 10.6197 24.3146C10.777 24.3162 10.8337 24.2902 10.8027 24.1096C10.53 22.5393 10.2678 20.9675 10.003 19.3961C9.96762 19.1864 9.92568 18.977 9.90199 18.7657C9.86703 18.4546 10.0325 18.2698 10.344 18.2678C10.8543 18.2643 11.3643 18.2667 11.8746 18.2667C15.0908 18.2667 18.3075 18.2667 21.5237 18.2671C21.6138 18.2671 21.7066 18.262 21.7936 18.2799C22.029 18.3288 22.1413 18.5401 22.0904 18.8465C21.9735 19.553 21.8511 20.2587 21.7311 20.9648C21.556 21.9952 21.3796 23.0256 21.206 24.056C21.1633 24.3108 21.1672 24.3119 21.4196 24.3119C22.5953 24.3119 21.2251 24.3119 22.4007 24.3119C22.4718 24.3119 22.5429 24.3096 22.614 24.315C22.8167 24.3302 22.9693 24.4712 22.9961 24.6638C23.0225 24.8533 22.9115 25.0394 22.7297 25.1116C22.6182 25.1559 22.5013 25.1481 22.3852 25.1481C19.4012 25.1481 18.9623 25.1481 15.9787 25.1481ZM16.0824 8.00268C14.3987 7.93083 12.9182 9.3131 12.8945 10.9999C12.879 12.1208 13.3054 13.07 14.1265 13.8238C15.1305 14.7463 16.456 14.8255 17.5132 14.0285C18.4752 13.3034 18.9471 12.3118 18.9969 11.3665C18.9984 9.45214 17.7051 8.0722 16.0824 8.00268ZM20.7395 17.8223C21.02 17.8223 21.0227 17.8161 20.9015 17.5559C20.7784 17.2918 20.6358 17.0393 20.463 16.8043C19.8777 16.0105 19.1207 15.577 18.1055 15.5922C16.6013 15.6143 15.0967 15.5968 13.592 15.5988C13.1015 15.5995 12.6502 15.7347 12.2416 16.0097C11.6773 16.3891 11.2975 16.9189 11.0069 17.5213C10.8714 17.8025 10.885 17.8223 11.1891 17.8223C12.7776 17.8223 14.3661 17.8223 15.9542 17.8223C17.5489 17.8223 19.1448 17.8223 20.7395 17.8223Z" fill="#2970FF"/>
</svg>
