<svg width="32" height="32" viewBox="0 0 32 32" fill="none" xmlns="http://www.w3.org/2000/svg">
<rect width="32" height="32" rx="6" fill="white"/>
<path d="M16.9351 12.9316L20.2844 9.99822C20.3982 10.2116 20.5582 10.3929 20.7502 10.5351L17.4009 13.4684C17.2871 13.2551 17.1271 13.0738 16.9351 12.9316ZM16 15.4667C16.6862 15.4667 17.2444 14.9084 17.2444 14.2222C17.2444 13.536 16.6862 12.9778 16 12.9778C15.3138 12.9778 14.7556 13.536 14.7556 14.2222C14.7556 14.9084 15.3138 15.4667 16 15.4667ZM21.6889 10.4889C22.3751 10.4889 22.9333 9.93067 22.9333 9.24444C22.9333 8.55822 22.3751 8 21.6889 8C21.0027 8 20.4444 8.55822 20.4444 9.24444C20.4444 9.93067 21.0027 10.4889 21.6889 10.4889ZM11.3778 14.7556H9.24444C8.55822 14.7556 8 15.3138 8 16V22.0444C8 22.7307 8.55822 23.2889 9.24444 23.2889H11.3778C12.064 23.2889 12.6222 22.7307 12.6222 22.0444V16C12.6222 15.3138 12.064 14.7556 11.3778 14.7556ZM17.0667 17.2444H14.9333C14.2471 17.2444 13.6889 17.8027 13.6889 18.4889V22.0444C13.6889 22.7307 14.2471 23.2889 14.9333 23.2889H17.0667C17.7529 23.2889 18.3111 22.7307 18.3111 22.0444V18.4889C18.3111 17.8027 17.7529 17.2444 17.0667 17.2444ZM22.7556 12.2667H20.6222C19.936 12.2667 19.3778 12.8249 19.3778 13.5111V22.0444C19.3778 22.7307 19.936 23.2889 20.6222 23.2889H22.7556C23.4418 23.2889 24 22.7307 24 22.0444V13.5111C24 12.8249 23.4418 12.2667 22.7556 12.2667ZM10.3111 10.4889C9.62489 10.4889 9.06667 11.0471 9.06667 11.7333C9.06667 12.4196 9.62489 12.9778 10.3111 12.9778C10.9973 12.9778 11.5556 12.4196 11.5556 11.7333C11.5556 11.0471 10.9973 10.4889 10.3111 10.4889ZM11.8791 12.0356C11.8329 12.2773 11.7298 12.4942 11.5876 12.6862L14.4284 13.9236C14.4747 13.6818 14.5778 13.4649 14.72 13.2729L11.8791 12.0356Z" fill="#2970FF"/>
</svg>
