<svg width="32" height="32" viewBox="0 0 32 32" fill="none" xmlns="http://www.w3.org/2000/svg">
<rect width="32" height="32" rx="6" fill="white"/>
<path fill-rule="evenodd" clip-rule="evenodd" d="M10.1862 10.1741H12.3775V8.96875C12.3775 8.79663 12.5179 8.65625 12.69 8.65625H13.3944C13.5665 8.65625 13.7069 8.79663 13.7069 8.96875V10.1741H18.2931V8.96875C18.2931 8.79663 18.4335 8.65625 18.6056 8.65625H19.31C19.4821 8.65625 19.6225 8.79663 19.6225 8.96875V10.1741H21.8138C22.6565 10.1741 23.3438 10.8613 23.3438 11.704V12.6843H8.65625V11.704C8.65625 10.8613 9.34353 10.1741 10.1862 10.1741ZM23.3438 13.4343V21.8138C23.3438 22.6565 22.6565 23.3438 21.8138 23.3438H10.1862C9.34353 23.3438 8.65625 22.6565 8.65625 21.8138V13.4343H23.3438ZM11.1024 15.263V17.1608H21.0002V15.263H11.1024ZM11.1024 19.2423V21.1401H13.0002V19.2423H11.1024ZM18.9998 19.2423V21.1401H20.8976V19.2423H18.9998ZM15.0511 19.2423V21.1401H16.9489V19.2423H15.0511Z" fill="#2970FF"/>
</svg>
