<svg width="32" height="32" viewBox="0 0 32 32" fill="none" xmlns="http://www.w3.org/2000/svg">
<rect width="32" height="32" rx="6" fill="white"/>
<path d="M16.0001 7.66666C11.4051 7.66666 7.66675 11.405 7.66675 16C7.66675 20.595 11.4051 24.3333 16.0001 24.3333C20.5951 24.3333 24.3334 20.595 24.3334 16C24.3334 11.405 20.5951 7.66666 16.0001 7.66666ZM22.0019 13.1206C22.2857 13.7105 21.8076 14.3333 21.153 14.3333H20.4662C20.0696 14.3333 19.7194 14.0925 19.5053 13.7585C19.18 13.2512 18.7488 12.82 18.2416 12.4948C17.9076 12.2807 17.6667 11.9305 17.6667 11.5338V10.8465C17.6667 10.1918 18.2897 9.7137 18.8796 9.99765C19.5543 10.3224 20.1724 10.7597 20.7062 11.2936C21.24 11.8275 21.6772 12.4458 22.0019 13.1206ZM16.0001 18.5C14.6217 18.5 13.5001 17.3783 13.5001 16C13.5001 14.6217 14.6217 13.5 16.0001 13.5C17.3784 13.5 18.5001 14.6217 18.5001 16C18.5001 17.3783 17.3784 18.5 16.0001 18.5ZM13.1206 9.99753C13.7105 9.71363 14.3334 10.1917 14.3334 10.8464V11.5338C14.3334 11.9305 14.0926 12.2807 13.7586 12.4948C13.2513 12.82 12.8201 13.2512 12.4949 13.7585C12.2808 14.0925 11.9306 14.3333 11.5339 14.3333H10.8471C10.1925 14.3333 9.7144 13.7105 9.99814 13.1207C10.3228 12.4458 10.76 11.8274 11.2939 11.2935C11.8277 10.7596 12.4458 10.3223 13.1206 9.99753ZM9.99814 18.8793C9.7144 18.2894 10.1925 17.6667 10.8471 17.6667H11.5339C11.9306 17.6667 12.2808 17.9075 12.4949 18.2415C12.8201 18.7488 13.2513 19.1799 13.7586 19.5052C14.0926 19.7193 14.3334 20.0695 14.3334 20.4662V21.1536C14.3334 21.8083 13.7105 22.2864 13.1206 22.0024C12.4458 21.6777 11.8277 21.2404 11.2939 20.7065C10.76 20.1725 10.3228 19.5542 9.99814 18.8793ZM18.8795 22.0024C18.2897 22.2864 17.6667 21.8083 17.6667 21.1536V20.4662C17.6667 20.0695 17.9076 19.7193 18.2416 19.5052C18.7488 19.1799 19.18 18.7488 19.5053 18.2415C19.7194 17.9075 20.0696 17.6667 20.4662 17.6667H21.1531C21.8077 17.6667 22.2858 18.2894 22.002 18.8793C21.6774 19.5542 21.2402 20.1725 20.7063 20.7065C20.1725 21.2404 19.5543 21.6777 18.8795 22.0024Z" fill="#2970FF"/>
</svg>
