<svg width="32" height="32" viewBox="0 0 32 32" fill="none" xmlns="http://www.w3.org/2000/svg">
<rect width="32" height="32" rx="6" fill="white"/>
<path d="M22.8966 13.2995C22.5885 13.2548 22.2944 13.1411 22.0363 12.9669C21.7782 12.7927 21.5627 12.5626 21.4059 12.2936C21.2491 12.0246 21.155 11.7237 21.1306 11.4133C21.1061 11.1029 21.1521 10.791 21.2649 10.5008C21.3367 10.3111 21.3472 10.1037 21.2951 9.90764C21.243 9.71161 21.1309 9.5368 20.9745 9.40771C20.2838 8.82772 19.4976 8.3721 18.651 8.06115C18.4582 7.98954 18.2478 7.98059 18.0496 8.03558C17.8514 8.09058 17.6757 8.20671 17.5474 8.36743C17.3542 8.61438 17.1074 8.81411 16.8256 8.95147C16.5438 9.08883 16.2344 9.16022 15.9209 9.16022C15.6074 9.16022 15.2981 9.08883 15.0163 8.95147C14.7344 8.81411 14.4876 8.61438 14.2945 8.36743C14.1662 8.20671 13.9904 8.09058 13.7923 8.03558C13.5941 7.98059 13.3836 7.98954 13.1909 8.06115C12.4091 8.34823 11.6783 8.75823 11.0258 9.27569C10.8613 9.40589 10.7429 9.58533 10.6878 9.78773C10.6326 9.99013 10.6438 10.2049 10.7195 10.4005C10.8414 10.6983 10.8917 11.0206 10.8665 11.3415C10.8413 11.6623 10.7413 11.9728 10.5744 12.248C10.4076 12.5232 10.1785 12.7554 9.90568 12.9261C9.63284 13.0968 9.32379 13.2012 9.00333 13.2309C8.79528 13.2531 8.59986 13.3416 8.44586 13.4832C8.29186 13.6249 8.1874 13.8122 8.14787 14.0177C8.04954 14.5044 8.00001 14.9997 8.00001 15.4963C7.99929 15.912 8.03285 16.327 8.10034 16.7372C8.13394 16.9493 8.23645 17.1443 8.39203 17.2923C8.54762 17.4402 8.74761 17.5328 8.96108 17.5557C9.28858 17.5864 9.60396 17.6952 9.88081 17.8728C10.1577 18.0504 10.3879 18.2918 10.5524 18.5767C10.7168 18.8616 10.8106 19.1817 10.8259 19.5103C10.8412 19.8389 10.7776 20.1664 10.6403 20.4653C10.5505 20.6598 10.5282 20.8786 10.577 21.0872C10.6258 21.2958 10.7429 21.4821 10.9096 21.6165C11.5962 22.1859 12.3748 22.6342 13.212 22.9419C13.319 22.979 13.4314 22.9986 13.5447 23C13.7 22.9997 13.853 22.9621 13.9908 22.8904C14.1286 22.8188 14.2473 22.7151 14.3367 22.5881C14.525 22.3139 14.7772 22.0898 15.0717 21.9352C15.3662 21.7806 15.694 21.7002 16.0265 21.701C16.3488 21.7014 16.6665 21.777 16.9544 21.9219C17.2422 22.0667 17.4923 22.2768 17.6847 22.5353C17.8126 22.7073 17.9939 22.8322 18.2002 22.8904C18.4065 22.9487 18.6262 22.9371 18.8253 22.8574C19.5908 22.5493 20.3035 22.1235 20.9375 21.5954C21.0968 21.4637 21.2102 21.2849 21.2614 21.0847C21.3127 20.8845 21.2991 20.6732 21.2227 20.4812C21.0985 20.1871 21.0443 19.8682 21.0645 19.5497C21.0846 19.2311 21.1786 18.9216 21.3389 18.6456C21.4992 18.3696 21.7214 18.1346 21.9881 17.9592C22.2548 17.7838 22.5586 17.6728 22.8755 17.6349C23.081 17.6065 23.2721 17.5134 23.4212 17.3691C23.5703 17.2248 23.6695 17.0367 23.7046 16.8323C23.7894 16.3918 23.8353 15.9447 23.8419 15.4963C23.842 15.0232 23.7978 14.5512 23.7098 14.0863C23.6742 13.8864 23.5764 13.7027 23.4304 13.5615C23.2844 13.4202 23.0977 13.3286 22.8966 13.2995ZM18.5612 15.4963C18.5612 16.0185 18.4064 16.5289 18.1163 16.9631C17.8261 17.3973 17.4138 17.7357 16.9313 17.9356C16.4489 18.1354 15.918 18.1877 15.4058 18.0858C14.8937 17.984 14.4232 17.7325 14.054 17.3632C13.6847 16.994 13.4332 16.5235 13.3314 16.0114C13.2295 15.4992 13.2818 14.9683 13.4816 14.4859C13.6814 14.0034 14.0199 13.591 14.4541 13.3009C14.8883 13.0108 15.3987 12.8559 15.9209 12.8559C16.6212 12.8559 17.2928 13.1341 17.7879 13.6293C18.2831 14.1244 18.5612 14.796 18.5612 15.4963Z" fill="#2970FF"/>
</svg>
