<svg width="32" height="32" viewBox="0 0 32 32" fill="none" xmlns="http://www.w3.org/2000/svg">
<rect width="32" height="32" rx="6" fill="white"/>
<path d="M10.25 11.75C10.25 10.7554 10.6451 9.80161 11.3483 9.09835C12.0516 8.39509 13.0054 8 14 8C14.9946 8 15.9484 8.39509 16.6517 9.09835C17.3549 9.80161 17.75 10.7554 17.75 11.75C17.75 12.7446 17.3549 13.6984 16.6517 14.4017C15.9484 15.1049 14.9946 15.5 14 15.5C13.0054 15.5 12.0516 15.1049 11.3483 14.4017C10.6451 13.6984 10.25 12.7446 10.25 11.75ZM18.2375 14.849C18.0455 15.1115 18.1745 15.5 18.5 15.5C19.4946 15.5 20.4484 15.1049 21.1517 14.4017C21.8549 13.6984 22.25 12.7446 22.25 11.75C22.25 10.7554 21.8549 9.80161 21.1517 9.09835C20.4484 8.39509 19.4946 8 18.5 8C18.1745 8 18.0455 8.38775 18.2375 8.651C18.875 9.5195 19.25 10.5905 19.25 11.75C19.25 12.9095 18.875 13.9805 18.2375 14.849ZM22.25 23C22.0511 23 21.8603 22.921 21.7197 22.7803C21.579 22.6397 21.5 22.4489 21.5 22.25V20.75C21.5 19.625 21.1295 18.5217 20.465 17.6225C20.2858 17.3795 20.4478 17 20.75 17C21.2425 17 21.7301 17.097 22.1851 17.2855C22.64 17.4739 23.0534 17.7501 23.4017 18.0983C23.7499 18.4466 24.0261 18.86 24.2145 19.3149C24.403 19.7699 24.5 20.2575 24.5 20.75V22.25C24.5 22.4489 24.421 22.6397 24.2803 22.7803C24.1397 22.921 23.9489 23 23.75 23H22.25ZM9.098 18.098C9.44629 17.7498 9.85976 17.4736 10.3148 17.2852C10.7698 17.0968 11.2575 16.9999 11.75 17H16.25C17.2446 17 18.1984 17.3951 18.9017 18.0983C19.6049 18.8016 20 19.7554 20 20.75V22.25C20 22.4489 19.921 22.6397 19.7803 22.7803C19.6397 22.921 19.4489 23 19.25 23H8.75C8.55109 23 8.36032 22.921 8.21967 22.7803C8.07902 22.6397 8 22.4489 8 22.25V20.75C8.00001 19.7556 8.39496 18.802 9.098 18.0988V18.098Z" fill="#2970FF"/>
</svg>
