<svg width="32" height="32" viewBox="0 0 32 32" fill="none" xmlns="http://www.w3.org/2000/svg">
<rect width="32" height="32" rx="6" fill="white"/>
<path d="M10.25 11.7501C10.25 9.67905 11.929 8 14.0001 8C16.0711 8 17.7502 9.67905 17.7502 11.7501C17.7502 13.8211 16.0711 15.5002 14.0001 15.5002C11.929 15.5002 10.25 13.8211 10.25 11.7501ZM18.2374 14.8491C18.0455 15.1117 18.1745 15.5002 18.5 15.5002C20.5711 15.5002 22.2501 13.8211 22.2501 11.7501C22.2501 9.67905 20.5711 8 18.5 8C18.1745 8 18.0455 8.38777 18.2374 8.65109C18.8748 9.51944 19.2499 10.5906 19.2499 11.7501C19.2499 12.9095 18.8748 13.9807 18.2374 14.8491ZM22.2498 23C21.8356 23 21.4999 22.6643 21.4999 22.2501V20.75C21.4999 19.625 21.1293 18.5218 20.4649 17.6225C20.2856 17.3796 20.4477 16.9999 20.75 16.9999C22.8211 16.9999 24.5001 18.679 24.5001 20.75V22.2501C24.5001 22.6643 24.1644 23 23.7502 23H22.2501H22.2498ZM16.2497 16.9999H15.1173C14.9419 16.9999 14.784 17.1068 14.719 17.2699L14.4996 17.8198C14.4683 17.8978 14.4592 17.9829 14.4729 18.0659L15.0143 21.3765C15.028 21.4531 15.0073 21.5319 14.9577 21.5917L14.2075 22.5152C14.1962 22.5289 14.1836 22.5416 14.1702 22.5532C14.0556 22.6481 13.8862 22.6316 13.7919 22.5159L13.0417 21.5934C12.9921 21.5329 12.9714 21.4538 12.9851 21.3765L13.5286 18.0666C13.5423 17.9832 13.5328 17.8975 13.5016 17.8191L13.2808 17.2689C13.2154 17.1065 13.0579 16.9999 12.8828 16.9999H11.7497C10.7552 16.9999 9.80104 17.3947 9.09792 18.0979V18.0986C8.3948 18.802 8 19.7555 8 20.75V22.2501C8 22.6643 8.33574 23 8.74988 23H19.2499C19.664 23 19.9998 22.6643 19.9998 22.2501V20.75C19.9998 18.679 18.3207 16.9999 16.2497 16.9999Z" fill="#2970FF"/>
</svg>
