<svg width="81" height="80" viewBox="0 0 81 80" fill="none" xmlns="http://www.w3.org/2000/svg">
<path d="M78.4681 55.1547V4.21936C78.4681 4.0536 78.4023 3.89463 78.2851 3.77742C78.1678 3.66021 78.0089 3.59436 77.8431 3.59436H48.4222C48.2564 3.59436 48.0974 3.66017 47.9801 3.77733L39.8523 11.9051C39.7943 11.9632 39.7483 12.0321 39.7169 12.108C39.6855 12.1838 39.6693 12.2651 39.6694 12.3472V29.5517C37.8828 30.43 36.2535 31.5971 34.847 33.0059C28.98 38.873 27.9697 47.7855 31.8172 54.6989V73.9056H27.6637V46.3762C27.6637 46.2105 27.5979 46.0515 27.4807 45.9343C27.3635 45.8171 27.2045 45.7512 27.0387 45.7512H19.1911C19.0253 45.7512 18.8663 45.8171 18.7491 45.9343C18.6319 46.0515 18.5661 46.2105 18.5661 46.3762V73.9056H14.4126V62.3428C14.4126 62.177 14.3468 62.0181 14.2296 61.9009C14.1124 61.7836 13.9534 61.7178 13.7876 61.7178H5.93545C5.76969 61.7178 5.61072 61.7836 5.49351 61.9009C5.3763 62.0181 5.31045 62.177 5.31045 62.3428V73.9056H3.78186C3.45034 73.9056 3.1324 74.0373 2.89798 74.2717C2.66356 74.5061 2.53186 74.8241 2.53186 75.1556C2.53186 75.4871 2.66356 75.8051 2.89798 76.0395C3.1324 76.2739 3.45034 76.4056 3.78186 76.4056H55.7036C56.0351 76.4056 56.3531 76.2739 56.5875 76.0395C56.8219 75.8051 56.9536 75.4871 56.9536 75.1556C56.9536 74.8241 56.8219 74.5061 56.5875 74.2717C56.3531 74.0373 56.0351 73.9056 55.7036 73.9056H54.175V62.8244C55.4088 62.3554 56.5875 61.7523 57.6897 61.0261L60.6383 65.3034L60.6389 65.3042L60.6469 65.3159L60.6478 65.3153C60.6717 65.35 60.698 65.3836 60.7289 65.4145L70.3341 75.0197C72.1759 76.8615 75.1683 76.8681 77.0145 75.038C77.0731 74.9855 77.1298 74.9319 77.1852 74.8765C77.9651 74.0965 78.4105 73.0475 78.4447 71.8955C78.4844 70.565 77.9684 69.2634 77.0294 68.3244L67.4242 58.7192C67.3936 58.6893 67.3604 58.6621 67.325 58.6381L67.3256 58.6372L67.3139 58.6291L67.3133 58.6287L63.1794 55.7798H77.843C78.0087 55.7798 78.1677 55.714 78.2849 55.5968C78.4021 55.4796 78.468 55.3206 78.468 55.1548L78.4681 55.1547ZM45.073 73.9056H40.9194V62.7117C42.255 63.2458 43.6493 63.6195 45.073 63.825V73.9056Z" fill="#F9FAFB"/>
<path d="M34.8434 58.7029C33.6538 57.5151 32.6354 56.1675 31.8173 54.6989V73.9056H40.9195V62.7117C38.643 61.8018 36.5757 60.4378 34.8434 58.7029Z" fill="#D1E0FF"/>
<path d="M60.5404 33.0059C53.4567 25.9222 41.9308 25.9223 34.8472 33.0059C27.7615 40.0916 27.7597 51.6192 34.8434 58.703C41.0409 64.9005 50.64 65.6744 57.6898 61.0261L60.6384 65.3034L60.639 65.3042L60.6472 65.3159L60.6481 65.3153C60.672 65.35 60.6983 65.3836 60.7292 65.4145L70.3344 75.0197C72.1762 76.8616 75.1686 76.8681 77.0148 75.038C77.0734 74.9855 77.1301 74.9319 77.1853 74.8766C77.9653 74.0966 78.4106 73.0475 78.4448 71.8955C78.4845 70.565 77.9686 69.2634 77.0295 68.3244L67.4244 58.7192C67.3938 58.6893 67.3606 58.6621 67.3251 58.6381L67.3258 58.6372L67.314 58.6291L67.3134 58.6287L62.9934 55.6517C67.497 48.6225 66.6803 39.1458 60.5404 33.0059Z" fill="#84ADFF"/>
<path d="M38.0823 36.2411C32.7806 41.5428 32.7789 50.1678 38.0787 55.4675C43.3805 60.7692 52.007 60.7692 57.3087 55.4675C62.6086 50.1677 62.6069 41.5428 57.3051 36.2411C52.0055 30.9414 43.3822 30.9412 38.0823 36.2411Z" fill="#F9FAFB"/>
<path d="M40.9194 52.8447V38.3659C40.9194 38.2002 40.8535 38.0412 40.7363 37.924C40.6191 37.8068 40.4601 37.7409 40.2944 37.7409H36.7878C32.8245 43.0612 33.2533 50.6422 38.0786 55.4675C38.9254 56.3141 39.8805 57.0449 40.9192 57.6408V52.8445L40.9194 52.8447Z" fill="#D1E0FF"/>
<path d="M60.5405 58.6992C59.6713 59.5692 58.7163 60.3487 57.6898 61.0259L60.6391 65.3041L67.3142 58.6289L62.9936 55.6514C62.288 56.7527 61.4656 57.7746 60.5406 58.6992H60.5405Z" fill="#528BFF"/>
<path d="M55.7036 76.4056H3.78186C3.45034 76.4056 3.1324 76.2739 2.89798 76.0395C2.66356 75.8051 2.53186 75.4871 2.53186 75.1556C2.53186 74.8241 2.66356 74.5061 2.89798 74.2717C3.1324 74.0373 3.45034 73.9056 3.78186 73.9056H55.7036C56.0351 73.9056 56.353 74.0373 56.5875 74.2717C56.8219 74.5061 56.9536 74.8241 56.9536 75.1556C56.9536 75.4871 56.8219 75.8051 56.5875 76.0395C56.353 76.2739 56.0351 76.4056 55.7036 76.4056Z" fill="#84ADFF"/>
<path d="M48.4222 11.7758V3.59436C48.2564 3.59436 48.0974 3.66017 47.9802 3.77733L39.8523 11.9051C39.7943 11.9632 39.7483 12.0321 39.7169 12.108C39.6855 12.1838 39.6693 12.2651 39.6694 12.3472H47.8508C47.9258 12.3472 48.0001 12.3324 48.0694 12.3037C48.1387 12.275 48.2017 12.2329 48.2547 12.1799C48.3078 12.1268 48.3498 12.0638 48.3785 11.9945C48.4073 11.9252 48.422 11.8509 48.422 11.7759L48.4222 11.7758Z" fill="#D1E0FF"/>
<path d="M70.6369 41.0934H68.5587C68.2272 41.0934 67.9093 40.9617 67.6749 40.7273C67.4404 40.4929 67.3087 40.1749 67.3087 39.8434C67.3087 39.5119 67.4404 39.1939 67.6749 38.9595C67.9093 38.7251 68.2272 38.5934 68.5587 38.5934H70.6369C70.9684 38.5934 71.2863 38.7251 71.5207 38.9595C71.7552 39.1939 71.8869 39.5119 71.8869 39.8434C71.8869 40.1749 71.7552 40.4929 71.5207 40.7273C71.2863 40.9617 70.9684 41.0934 70.6369 41.0934ZM70.6369 28.294H57.1689C56.8374 28.294 56.5194 28.1623 56.285 27.9279C56.0506 27.6935 55.9189 27.3756 55.9189 27.044C55.9189 26.7125 56.0506 26.3946 56.285 26.1602C56.5194 25.9257 56.8374 25.794 57.1689 25.794H70.6369C70.9684 25.794 71.2863 25.9257 71.5207 26.1602C71.7552 26.3946 71.8869 26.7125 71.8869 27.044C71.8869 27.3756 71.7552 27.6935 71.5207 27.9279C71.2863 28.1623 70.9684 28.294 70.6369 28.294ZM70.6369 34.6914H66.0511C65.7196 34.6914 65.4016 34.5597 65.1672 34.3253C64.9328 34.0908 64.8011 33.7729 64.8011 33.4414C64.8011 33.1099 64.9328 32.7919 65.1672 32.5575C65.4016 32.3231 65.7196 32.1914 66.0511 32.1914H70.6369C70.9684 32.1914 71.2863 32.3231 71.5207 32.5575C71.7552 32.7919 71.8869 33.1099 71.8869 33.4414C71.8869 33.7729 71.7552 34.0908 71.5207 34.3253C71.2863 34.5597 70.9684 34.6914 70.6369 34.6914ZM70.6369 21.8922H47.5006C47.1691 21.8922 46.8512 21.7605 46.6167 21.526C46.3823 21.2916 46.2506 20.9737 46.2506 20.6422C46.2506 20.3106 46.3823 19.9927 46.6167 19.7583C46.8512 19.5239 47.1691 19.3922 47.5006 19.3922H70.6369C70.9684 19.3922 71.2863 19.5239 71.5207 19.7583C71.7552 19.9927 71.8869 20.3106 71.8869 20.6422C71.8869 20.9737 71.7552 21.2916 71.5207 21.526C71.2863 21.7605 70.9684 21.8922 70.6369 21.8922ZM70.6369 15.4947H57.1689C56.8374 15.4947 56.5194 15.363 56.285 15.1285C56.0506 14.8941 55.9189 14.5762 55.9189 14.2447C55.9189 13.9131 56.0506 13.5952 56.285 13.3608C56.5194 13.1264 56.8374 12.9947 57.1689 12.9947H70.6369C70.9684 12.9947 71.2863 13.1264 71.5207 13.3608C71.7552 13.5952 71.8869 13.9131 71.8869 14.2447C71.8869 14.5762 71.7552 14.8941 71.5207 15.1285C71.2863 15.363 70.9684 15.4947 70.6369 15.4947ZM70.6369 47.4908H68.5587C68.2272 47.4908 67.9093 47.3591 67.6749 47.1246C67.4404 46.8902 67.3087 46.5723 67.3087 46.2408C67.3087 45.9092 67.4404 45.5913 67.6749 45.3569C67.9093 45.1224 68.2272 44.9908 68.5587 44.9908H70.6369C70.9684 44.9908 71.2863 45.1224 71.5207 45.3569C71.7552 45.5913 71.8869 45.9092 71.8869 46.2408C71.8869 46.5723 71.7552 46.8902 71.5207 47.1246C71.2863 47.3591 70.9684 47.4908 70.6369 47.4908Z" fill="#D1E0FF"/>
<path d="M15.8403 10.6516H14.7334C14.4019 10.6516 14.084 10.5199 13.8495 10.2854C13.6151 10.051 13.4834 9.73307 13.4834 9.40155C13.4834 9.07003 13.6151 8.75209 13.8495 8.51767C14.084 8.28325 14.4019 8.15155 14.7334 8.15155H15.8403C16.1718 8.15155 16.4898 8.28325 16.7242 8.51767C16.9586 8.75209 17.0903 9.07003 17.0903 9.40155C17.0903 9.73307 16.9586 10.051 16.7242 10.2854C16.4898 10.5199 16.1718 10.6516 15.8403 10.6516ZM31.6937 10.6516H19.8522C19.5207 10.6516 19.2027 10.5199 18.9683 10.2854C18.7339 10.051 18.6022 9.73307 18.6022 9.40155C18.6022 9.07003 18.7339 8.75209 18.9683 8.51767C19.2027 8.28325 19.5207 8.15155 19.8522 8.15155H31.6937C32.0253 8.15155 32.3432 8.28325 32.5776 8.51767C32.812 8.75209 32.9437 9.07003 32.9437 9.40155C32.9437 9.73307 32.812 10.051 32.5776 10.2854C32.3432 10.5199 32.0253 10.6516 31.6937 10.6516ZM31.6937 15.0926H14.7062C14.3747 15.0926 14.0568 14.9609 13.8224 14.7265C13.5879 14.4921 13.4562 14.1742 13.4562 13.8426C13.4562 13.5111 13.5879 13.1932 13.8224 12.9588C14.0568 12.7243 14.3747 12.5926 14.7062 12.5926H31.6937C32.0253 12.5926 32.3432 12.7243 32.5776 12.9588C32.812 13.1932 32.9437 13.5111 32.9437 13.8426C32.9437 14.1742 32.812 14.4921 32.5776 14.7265C32.3432 14.9609 32.0253 15.0926 31.6937 15.0926ZM15.8403 23.3108H14.7334C14.4019 23.3108 14.084 23.1791 13.8495 22.9447C13.6151 22.7102 13.4834 22.3923 13.4834 22.0608C13.4834 21.7292 13.6151 21.4113 13.8495 21.1769C14.084 20.9425 14.4019 20.8108 14.7334 20.8108H15.8403C16.1718 20.8108 16.4898 20.9425 16.7242 21.1769C16.9586 21.4113 17.0903 21.7292 17.0903 22.0608C17.0903 22.3923 16.9586 22.7102 16.7242 22.9447C16.4898 23.1791 16.1718 23.3108 15.8403 23.3108ZM31.6937 23.3108H19.8522C19.5207 23.3108 19.2027 23.1791 18.9683 22.9447C18.7339 22.7102 18.6022 22.3923 18.6022 22.0608C18.6022 21.7292 18.7339 21.4113 18.9683 21.1769C19.2027 20.9425 19.5207 20.8108 19.8522 20.8108H31.6937C32.0253 20.8108 32.3432 20.9425 32.5776 21.1769C32.812 21.4113 32.9437 21.7292 32.9437 22.0608C32.9437 22.3923 32.812 22.7102 32.5776 22.9447C32.3432 23.1791 32.0253 23.3108 31.6937 23.3108ZM31.6937 27.7519H14.7062C14.3747 27.7519 14.0568 27.6202 13.8224 27.3857C13.5879 27.1513 13.4562 26.8334 13.4562 26.5019C13.4562 26.1703 13.5879 25.8524 13.8224 25.618C14.0568 25.3836 14.3747 25.2519 14.7062 25.2519H31.6937C32.0253 25.2519 32.3432 25.3836 32.5776 25.618C32.812 25.8524 32.9437 26.1703 32.9437 26.5019C32.9437 26.8334 32.812 27.1513 32.5776 27.3857C32.3432 27.6202 32.0253 27.7519 31.6937 27.7519Z" fill="#D1E0FF"/>
<path d="M9.70499 7.41046H3.78186C3.0915 7.41046 2.53186 7.97011 2.53186 8.66046V14.5834C2.53186 15.2738 3.0915 15.8334 3.78186 15.8334H9.70499C10.3953 15.8334 10.955 15.2738 10.955 14.5834V8.66046C10.955 7.97011 10.3953 7.41046 9.70499 7.41046Z" fill="#D1E0FF"/>
<path d="M9.70499 20.0698H3.78186C3.0915 20.0698 2.53186 20.6295 2.53186 21.3198V27.2428C2.53186 27.9331 3.0915 28.4928 3.78186 28.4928H9.70499C10.3953 28.4928 10.955 27.9331 10.955 27.2428V21.3198C10.955 20.6295 10.3953 20.0698 9.70499 20.0698Z" fill="#D1E0FF"/>
<path d="M14.4126 73.9056V62.3428C14.4126 62.177 14.3468 62.0181 14.2296 61.9009C14.1124 61.7837 13.9534 61.7178 13.7876 61.7178H5.93546C5.76969 61.7178 5.61072 61.7837 5.49351 61.9009C5.3763 62.0181 5.31046 62.177 5.31046 62.3428V73.9056H14.4126Z" fill="#D1E0FF"/>
<path d="M27.6637 73.9056V46.3762C27.6637 46.2105 27.5979 46.0515 27.4807 45.9343C27.3635 45.8171 27.2045 45.7512 27.0387 45.7512H19.1911C19.0253 45.7512 18.8663 45.8171 18.7491 45.9343C18.6319 46.0515 18.5661 46.2105 18.5661 46.3762V73.9056H27.6637Z" fill="#D1E0FF"/>
<path d="M54.1751 57.8041V48.965C54.1751 48.7992 54.1093 48.6403 53.9921 48.5231C53.8749 48.4058 53.7159 48.34 53.5501 48.34H45.6979C45.5322 48.34 45.3732 48.4058 45.256 48.5231C45.1388 48.6403 45.0729 48.7992 45.0729 48.965V59.1905C48.1378 59.788 51.3687 59.3241 54.1751 57.8041ZM45.0729 63.8248V73.9055H54.1751V62.8242C51.2634 63.932 48.1228 64.2648 45.0729 63.8248Z" fill="#D1E0FF"/>
</svg>
